<?xml version="1.0" encoding="UTF-8" standalone="no"?>
<!-- Created with Inkscape (http://www.inkscape.org/) -->

<svg
   xmlns:dc="http://purl.org/dc/elements/1.1/"
   xmlns:cc="http://creativecommons.org/ns#"
   xmlns:rdf="http://www.w3.org/1999/02/22-rdf-syntax-ns#"
   xmlns:svg="http://www.w3.org/2000/svg"
   xmlns="http://www.w3.org/2000/svg"
   xmlns:sodipodi="http://sodipodi.sourceforge.net/DTD/sodipodi-0.dtd"
   xmlns:inkscape="http://www.inkscape.org/namespaces/inkscape"
   width="90mm"
   height="90.000031mm"
   viewBox="0 0 90 90.00003"
   version="1.1"
   id="svg8"
   inkscape:version="0.92.1 r15371"
   sodipodi:docname="ОМОЗУ.svg">
  <defs
     id="defs2" />
  <sodipodi:namedview
     id="base"
     pagecolor="#ffffff"
     bordercolor="#666666"
     borderopacity="1.0"
     inkscape:pageopacity="0.0"
     inkscape:pageshadow="2"
     inkscape:zoom="2.2019206"
     inkscape:cx="170.07873"
     inkscape:cy="170.0788"
     inkscape:document-units="mm"
     inkscape:current-layer="layer1"
     showgrid="false"
     inkscape:window-width="1280"
     inkscape:window-height="962"
     inkscape:window-x="-8"
     inkscape:window-y="-8"
     inkscape:window-maximized="1"
     inkscape:snap-global="false"
     fit-margin-top="0"
     fit-margin-left="0"
     fit-margin-right="0"
     fit-margin-bottom="0" />
  <metadata
     id="metadata5">
    <rdf:RDF>
      <cc:Work
         rdf:about="">
        <dc:format>image/svg+xml</dc:format>
        <dc:type
           rdf:resource="http://purl.org/dc/dcmitype/StillImage" />
        <dc:title></dc:title>
      </cc:Work>
    </rdf:RDF>
  </metadata>
  <g
     inkscape:label="Layer 1"
     inkscape:groupmode="layer"
     id="layer1"
     transform="translate(-128.93869,-78.373157)">
    <g
       id="g977"
       transform="matrix(2.7327175,0,0,2.7327175,-223.4143,-291.74315)">
      <path
         inkscape:connector-curvature="0"
         id="circle842"
         d="m 161.87293,151.90605 a 16.467127,16.467127 0 0 1 -16.46713,16.46713 16.467127,16.467127 0 0 1 -16.46712,-16.46713 16.467127,16.467127 0 0 1 16.46712,-16.46713 16.467127,16.467127 0 0 1 16.46713,16.46713 z"
         style="opacity:1;fill:#ec2426;fill-opacity:1;fill-rule:evenodd;stroke:none;stroke-width:0.03632674;stroke-linecap:square;stroke-linejoin:round;stroke-miterlimit:4;stroke-dasharray:none;paint-order:normal" />
      <path
         inkscape:connector-curvature="0"
         id="path840"
         d="m 160.97524,151.90605 a 15.569433,15.569433 0 0 1 -15.56944,15.56943 15.569433,15.569433 0 0 1 -15.56943,-15.56943 15.569433,15.569433 0 0 1 15.56943,-15.56943 15.569433,15.569433 0 0 1 15.56944,15.56943 z"
         style="opacity:1;fill:#ffffff;fill-opacity:1;fill-rule:evenodd;stroke:none;stroke-width:0.03434641;stroke-linecap:square;stroke-linejoin:round;stroke-miterlimit:4;stroke-dasharray:none;paint-order:normal" />
      <path
         inkscape:connector-curvature="0"
         id="rect833"
         d="m 138.71733,138.40325 v 6.81405 h -6.81457 v 13.37696 h 6.81457 v 6.81458 h 13.37696 v -6.81458 h 6.81457 V 145.2173 h -6.81457 v -6.81405 z"
         style="opacity:1;fill:#ec2426;fill-opacity:1;fill-rule:evenodd;stroke:none;stroke-width:0.07627981;stroke-linecap:square;stroke-linejoin:round;stroke-miterlimit:4;stroke-dasharray:none;paint-order:normal" />
      <g
         transform="translate(42.445535,-0.05291666)"
         id="g848">
        <path
           style="opacity:0.99199997;vector-effect:none;fill:#ffffff;fill-opacity:1;fill-rule:evenodd;stroke:#3953a4;stroke-width:0.13229167;stroke-linecap:round;stroke-linejoin:round;stroke-miterlimit:4;stroke-dasharray:none;stroke-dashoffset:0;stroke-opacity:1"
           d="m 103.12844,165.2812 h 1.76881 l -0.23033,-2.86435 c 0.49882,-0.10657 0.98439,-0.23574 1.42655,-0.42137 0.35695,-0.14986 0.63785,-0.35993 0.86863,-0.62224 l 1.57037,-1.78488 c 0.0352,-0.04 0.0131,-0.0864 -0.0127,-0.11511 -0.10034,-0.11125 -0.31515,-0.20981 -0.43929,-0.095 l -1.02467,0.94789 c -0.12704,0.11752 -0.27069,0.20958 -0.43995,0.28647 l -1.11473,0.50643 c -0.0797,0.0362 -0.18787,0.0469 -0.22619,-0.027 -0.0383,-0.0739 0.002,-0.15799 0.12941,-0.23922 l 0.9029,-0.57396 c 0.23695,-0.15063 0.34736,-0.31635 0.38758,-0.52385 0.0345,-0.17778 -0.12993,-0.19051 -0.2443,-0.15451 -0.45581,0.14346 -0.85096,0.39224 -1.28563,0.62736 -0.23725,0.12833 -0.45725,0.23346 -0.68548,0.30599 -0.37621,0.11956 -0.70726,0.26208 -0.96468,0.4886 -0.15254,0.13423 -0.20085,0.31496 -0.20912,0.4908 z"
           id="path831"
           inkscape:connector-curvature="0"
           sodipodi:nodetypes="cccsssasssszssssssssc" />
        <path
           sodipodi:nodetypes="cccsssasssszssssssssc"
           inkscape:connector-curvature="0"
           id="path844"
           d="m 102.7921,165.2812 h -1.76881 l 0.23033,-2.86435 c -0.49882,-0.10657 -0.98439,-0.23574 -1.426551,-0.42137 -0.35695,-0.14986 -0.63785,-0.35993 -0.86863,-0.62224 l -1.57037,-1.78488 c -0.0352,-0.04 -0.0131,-0.0864 0.0127,-0.11511 0.10034,-0.11125 0.31515,-0.20981 0.43929,-0.095 l 1.02467,0.94789 c 0.12704,0.11752 0.27069,0.20958 0.43995,0.28647 l 1.114731,0.50643 c 0.0797,0.0362 0.18787,0.0469 0.22619,-0.027 0.0383,-0.0739 -0.002,-0.15799 -0.12941,-0.23922 l -0.902901,-0.57396 c -0.23695,-0.15063 -0.34736,-0.31635 -0.38758,-0.52385 -0.0345,-0.17778 0.12993,-0.19051 0.2443,-0.15451 0.45581,0.14346 0.850961,0.39224 1.285631,0.62736 0.23725,0.12833 0.45725,0.23346 0.68548,0.30599 0.37621,0.11956 0.70726,0.26208 0.96468,0.4886 0.15254,0.13423 0.20085,0.31496 0.20912,0.4908 z"
           style="opacity:0.99199997;vector-effect:none;fill:#ffffff;fill-opacity:1;fill-rule:evenodd;stroke:#3953a4;stroke-width:0.13229167;stroke-linecap:round;stroke-linejoin:round;stroke-miterlimit:4;stroke-dasharray:none;stroke-dashoffset:0;stroke-opacity:1" />
      </g>
      <path
         inkscape:connector-curvature="0"
         id="path850"
         d="m 153.55417,151.90605 a 8.1483622,8.1483622 0 0 1 -8.14836,8.14836 8.1483622,8.1483622 0 0 1 -8.14837,-8.14836 8.1483622,8.1483622 0 0 1 8.14837,-8.14836 8.1483622,8.1483622 0 0 1 8.14836,8.14836 z"
         style="opacity:1;fill:#ffffff;fill-opacity:1;fill-rule:evenodd;stroke:none;stroke-width:0.06384804;stroke-linecap:square;stroke-linejoin:round;stroke-miterlimit:4;stroke-dasharray:none;stroke-opacity:1;paint-order:normal" />
      <g
         transform="rotate(180,124.18304,151.93251)"
         id="g889">
        <path
           style="opacity:0.99199997;vector-effect:none;fill:#ffffff;fill-opacity:1;fill-rule:evenodd;stroke:#3953a4;stroke-width:0.13229167;stroke-linecap:round;stroke-linejoin:round;stroke-miterlimit:4;stroke-dasharray:none;stroke-dashoffset:0;stroke-opacity:1"
           d="m 103.12844,165.2812 h 1.76881 l -0.23033,-2.86435 c 0.49882,-0.10657 0.98439,-0.23574 1.42655,-0.42137 0.35695,-0.14986 0.63785,-0.35993 0.86863,-0.62224 l 1.57037,-1.78488 c 0.0352,-0.04 0.0131,-0.0864 -0.0127,-0.11511 -0.10034,-0.11125 -0.31515,-0.20981 -0.43929,-0.095 l -1.02467,0.94789 c -0.12704,0.11752 -0.27069,0.20958 -0.43995,0.28647 l -1.11473,0.50643 c -0.0797,0.0362 -0.18787,0.0469 -0.22619,-0.027 -0.0383,-0.0739 0.002,-0.15799 0.12941,-0.23922 l 0.9029,-0.57396 c 0.23695,-0.15063 0.34736,-0.31635 0.38758,-0.52385 0.0345,-0.17778 -0.12993,-0.19051 -0.2443,-0.15451 -0.45581,0.14346 -0.85096,0.39224 -1.28563,0.62736 -0.23725,0.12833 -0.45725,0.23346 -0.68548,0.30599 -0.37621,0.11956 -0.70726,0.26208 -0.96468,0.4886 -0.15254,0.13423 -0.20085,0.31496 -0.20912,0.4908 z"
           id="path885"
           inkscape:connector-curvature="0"
           sodipodi:nodetypes="cccsssasssszssssssssc" />
        <path
           sodipodi:nodetypes="cccsssasssszssssssssc"
           inkscape:connector-curvature="0"
           id="path887"
           d="m 102.7921,165.2812 h -1.76881 l 0.23033,-2.86435 c -0.49882,-0.10657 -0.98439,-0.23574 -1.426551,-0.42137 -0.35695,-0.14986 -0.63785,-0.35993 -0.86863,-0.62224 l -1.57037,-1.78488 c -0.0352,-0.04 -0.0131,-0.0864 0.0127,-0.11511 0.10034,-0.11125 0.31515,-0.20981 0.43929,-0.095 l 1.02467,0.94789 c 0.12704,0.11752 0.27069,0.20958 0.43995,0.28647 l 1.114731,0.50643 c 0.0797,0.0362 0.18787,0.0469 0.22619,-0.027 0.0383,-0.0739 -0.002,-0.15799 -0.12941,-0.23922 l -0.902901,-0.57396 c -0.23695,-0.15063 -0.34736,-0.31635 -0.38758,-0.52385 -0.0345,-0.17778 0.12993,-0.19051 0.2443,-0.15451 0.45581,0.14346 0.850961,0.39224 1.285631,0.62736 0.23725,0.12833 0.45725,0.23346 0.68548,0.30599 0.37621,0.11956 0.70726,0.26208 0.96468,0.4886 0.15254,0.13423 0.20085,0.31496 0.20912,0.4908 z"
           style="opacity:0.99199997;vector-effect:none;fill:#ffffff;fill-opacity:1;fill-rule:evenodd;stroke:#3953a4;stroke-width:0.13229167;stroke-linecap:round;stroke-linejoin:round;stroke-miterlimit:4;stroke-dasharray:none;stroke-dashoffset:0;stroke-opacity:1" />
      </g>
      <g
         id="g910"
         transform="rotate(90,124.2095,173.15528)">
        <path
           sodipodi:nodetypes="cccsssasssszssssssssc"
           inkscape:connector-curvature="0"
           id="path906"
           d="m 103.12844,165.2812 h 1.76881 l -0.23033,-2.86435 c 0.49882,-0.10657 0.98439,-0.23574 1.42655,-0.42137 0.35695,-0.14986 0.63785,-0.35993 0.86863,-0.62224 l 1.57037,-1.78488 c 0.0352,-0.04 0.0131,-0.0864 -0.0127,-0.11511 -0.10034,-0.11125 -0.31515,-0.20981 -0.43929,-0.095 l -1.02467,0.94789 c -0.12704,0.11752 -0.27069,0.20958 -0.43995,0.28647 l -1.11473,0.50643 c -0.0797,0.0362 -0.18787,0.0469 -0.22619,-0.027 -0.0383,-0.0739 0.002,-0.15799 0.12941,-0.23922 l 0.9029,-0.57396 c 0.23695,-0.15063 0.34736,-0.31635 0.38758,-0.52385 0.0345,-0.17778 -0.12993,-0.19051 -0.2443,-0.15451 -0.45581,0.14346 -0.85096,0.39224 -1.28563,0.62736 -0.23725,0.12833 -0.45725,0.23346 -0.68548,0.30599 -0.37621,0.11956 -0.70726,0.26208 -0.96468,0.4886 -0.15254,0.13423 -0.20085,0.31496 -0.20912,0.4908 z"
           style="opacity:0.99199997;vector-effect:none;fill:#ffffff;fill-opacity:1;fill-rule:evenodd;stroke:#3953a4;stroke-width:0.13229167;stroke-linecap:round;stroke-linejoin:round;stroke-miterlimit:4;stroke-dasharray:none;stroke-dashoffset:0;stroke-opacity:1" />
        <path
           style="opacity:0.99199997;vector-effect:none;fill:#ffffff;fill-opacity:1;fill-rule:evenodd;stroke:#3953a4;stroke-width:0.13229167;stroke-linecap:round;stroke-linejoin:round;stroke-miterlimit:4;stroke-dasharray:none;stroke-dashoffset:0;stroke-opacity:1"
           d="m 102.7921,165.2812 h -1.76881 l 0.23033,-2.86435 c -0.49882,-0.10657 -0.98439,-0.23574 -1.426551,-0.42137 -0.35695,-0.14986 -0.63785,-0.35993 -0.86863,-0.62224 l -1.57037,-1.78488 c -0.0352,-0.04 -0.0131,-0.0864 0.0127,-0.11511 0.10034,-0.11125 0.31515,-0.20981 0.43929,-0.095 l 1.02467,0.94789 c 0.12704,0.11752 0.27069,0.20958 0.43995,0.28647 l 1.114731,0.50643 c 0.0797,0.0362 0.18787,0.0469 0.22619,-0.027 0.0383,-0.0739 -0.002,-0.15799 -0.12941,-0.23922 l -0.902901,-0.57396 c -0.23695,-0.15063 -0.34736,-0.31635 -0.38758,-0.52385 -0.0345,-0.17778 0.12993,-0.19051 0.2443,-0.15451 0.45581,0.14346 0.850961,0.39224 1.285631,0.62736 0.23725,0.12833 0.45725,0.23346 0.68548,0.30599 0.37621,0.11956 0.70726,0.26208 0.96468,0.4886 0.15254,0.13423 0.20085,0.31496 0.20912,0.4908 z"
           id="path908"
           inkscape:connector-curvature="0"
           sodipodi:nodetypes="cccsssasssszssssssssc" />
      </g>
      <g
         id="g918"
         transform="rotate(-90,124.15659,130.70973)">
        <path
           sodipodi:nodetypes="cccsssasssszssssssssc"
           inkscape:connector-curvature="0"
           id="path914"
           d="m 103.12844,165.2812 h 1.76881 l -0.23033,-2.86435 c 0.49882,-0.10657 0.98439,-0.23574 1.42655,-0.42137 0.35695,-0.14986 0.63785,-0.35993 0.86863,-0.62224 l 1.57037,-1.78488 c 0.0352,-0.04 0.0131,-0.0864 -0.0127,-0.11511 -0.10034,-0.11125 -0.31515,-0.20981 -0.43929,-0.095 l -1.02467,0.94789 c -0.12704,0.11752 -0.27069,0.20958 -0.43995,0.28647 l -1.11473,0.50643 c -0.0797,0.0362 -0.18787,0.0469 -0.22619,-0.027 -0.0383,-0.0739 0.002,-0.15799 0.12941,-0.23922 l 0.9029,-0.57396 c 0.23695,-0.15063 0.34736,-0.31635 0.38758,-0.52385 0.0345,-0.17778 -0.12993,-0.19051 -0.2443,-0.15451 -0.45581,0.14346 -0.85096,0.39224 -1.28563,0.62736 -0.23725,0.12833 -0.45725,0.23346 -0.68548,0.30599 -0.37621,0.11956 -0.70726,0.26208 -0.96468,0.4886 -0.15254,0.13423 -0.20085,0.31496 -0.20912,0.4908 z"
           style="opacity:0.99199997;vector-effect:none;fill:#ffffff;fill-opacity:1;fill-rule:evenodd;stroke:#3953a4;stroke-width:0.13229167;stroke-linecap:round;stroke-linejoin:round;stroke-miterlimit:4;stroke-dasharray:none;stroke-dashoffset:0;stroke-opacity:1" />
        <path
           style="opacity:0.99199997;vector-effect:none;fill:#ffffff;fill-opacity:1;fill-rule:evenodd;stroke:#3953a4;stroke-width:0.13229167;stroke-linecap:round;stroke-linejoin:round;stroke-miterlimit:4;stroke-dasharray:none;stroke-dashoffset:0;stroke-opacity:1"
           d="m 102.7921,165.2812 h -1.76881 l 0.23033,-2.86435 c -0.49882,-0.10657 -0.98439,-0.23574 -1.426551,-0.42137 -0.35695,-0.14986 -0.63785,-0.35993 -0.86863,-0.62224 l -1.57037,-1.78488 c -0.0352,-0.04 -0.0131,-0.0864 0.0127,-0.11511 0.10034,-0.11125 0.31515,-0.20981 0.43929,-0.095 l 1.02467,0.94789 c 0.12704,0.11752 0.27069,0.20958 0.43995,0.28647 l 1.114731,0.50643 c 0.0797,0.0362 0.18787,0.0469 0.22619,-0.027 0.0383,-0.0739 -0.002,-0.15799 -0.12941,-0.23922 l -0.902901,-0.57396 c -0.23695,-0.15063 -0.34736,-0.31635 -0.38758,-0.52385 -0.0345,-0.17778 0.12993,-0.19051 0.2443,-0.15451 0.45581,0.14346 0.850961,0.39224 1.285631,0.62736 0.23725,0.12833 0.45725,0.23346 0.68548,0.30599 0.37621,0.11956 0.70726,0.26208 0.96468,0.4886 0.15254,0.13423 0.20085,0.31496 0.20912,0.4908 z"
           id="path916"
           inkscape:connector-curvature="0"
           sodipodi:nodetypes="cccsssasssszssssssssc" />
      </g>
      <g
         transform="translate(42.448439)"
         id="g956">
        <path
           sodipodi:nodetypes="cccsscccccccccccccccccccscccccccccccsccccccccscssccccccc"
           inkscape:connector-curvature="0"
           style="opacity:1;vector-effect:none;fill:#3953a4;fill-opacity:1;fill-rule:evenodd;stroke:none;stroke-width:0.09999999;stroke-linecap:round;stroke-linejoin:round;stroke-miterlimit:4;stroke-dasharray:none;stroke-dashoffset:0;stroke-opacity:1"
           d="m 373.42383,551.84375 c -2.50231,0.11957 -4.66151,1.61955 -4.62695,4.84766 0.0152,1.42201 0.94954,2.63327 2.24218,3.55468 0.16037,0.1143 0.21094,0.27928 0.21094,0.52344 v 1.30469 c 0,0.15417 -0.1287,0.2664 -0.23438,0.38281 -1.30673,1.43845 -1.95296,3.10169 -2.24414,4.86328 0.0373,0.004 0.0699,0.003 0.10938,0.008 0.27199,0.0317 0.60348,0.0863 1.05469,0.1543 0.53312,0.0809 1.18693,0.0614 1.83789,0.0879 0.65096,0.0262 1.31807,0.0882 1.89062,0.43555 1.52062,0.9222 3.29175,1.7411 5.02735,2.45898 0.13026,0.0539 0.24944,0.10158 0.37695,0.1543 0.0269,-0.88603 -0.025,-1.81073 -0.16992,-2.68164 -0.0189,-0.11452 -0.11528,-0.25309 0.27734,-0.28711 3.04022,-0.22942 5.40205,-0.36377 6.66211,-0.26172 0.26854,0.0219 0.51416,-0.1308 0.44727,0.17383 -0.0136,0.0627 -0.0177,0.12898 0.14062,0.12891 h 0.53516 c 0.90089,-4.6e-4 0.86178,-1.89743 -0.91406,-2.72461 -0.31098,-0.14476 -0.57434,-0.17944 -0.86915,0.14258 l -0.31835,0.41015 c -2.09968,-4e-5 -4.31388,-0.0533 -6.18165,-0.47656 -0.82928,-0.72049 -1.90756,-1.2567 -3.06054,-1.76758 -0.20032,-0.0888 -0.24219,-0.17864 -0.24219,-0.28711 v -0.96094 c 2.3e-4,-0.15722 0.0573,-0.3404 0.23047,-0.29882 0.59673,0.144 1.05284,0.3232 1.73633,-0.0449 0.58643,-0.31596 1.12748,-0.83028 1.25976,-1.57031 0.0242,-0.13565 0.0172,-0.3231 0.13282,-0.40625 0.17264,-0.12438 0.49464,-0.15058 0.50976,-0.51758 -0.0215,-0.32882 -0.22985,-0.24546 -0.29297,-0.58789 l -0.16211,-0.8789 c -0.0641,-0.34715 -0.0469,-0.48111 0.24219,-0.5 0.16403,-0.0113 0.22304,-0.0197 0.23437,-0.32813 0.0257,-0.69702 0.11261,-1.40004 -0.14062,-2.07812 -0.36601,-0.97988 -1.2646,-1.8816 -2.25,-2.3125 -1.10516,-0.48328 -2.31376,-0.71451 -3.45117,-0.66016 z m -4.77344,20.22656 c 0.27864,3.52902 1.34643,6.27933 4.67188,6.98047 1.1795,0.24869 2.83153,0.22958 4.28711,0.20313 l -0.29688,6.40625 c -0.0212,0.4577 0.0632,0.98488 0.51562,1 2.0437,0.0699 3.80632,0.316 5.62696,0.52539 0.64554,0.0744 0.54334,-0.46598 0.27539,-0.64063 -1.40631,-0.91665 -2.23963,-1.17401 -3.38086,-1.4707 -0.14929,-0.0389 -0.13281,-0.0717 -0.13281,-0.125 v -0.62891 c 0,-0.11149 0.0266,-0.15708 0.0742,-0.21679 l 1.55664,-1.9668 c 0.52338,-0.66072 0.54247,-1.53328 0.32031,-2.3418 -3.19386,-1.64149 -5.82986,-4.10103 -7.91406,-7.34375 -0.0274,-0.0427 -0.15699,-0.12627 -0.38282,-0.17578 -0.22582,-0.051 -0.51026,-0.0667 -0.73828,-0.0742 z"
           transform="scale(0.26458333)"
           id="path944" />
        <path
           style="opacity:1;vector-effect:none;fill:#3953a4;fill-opacity:1;fill-rule:evenodd;stroke:none;stroke-width:0.02645833;stroke-linecap:round;stroke-linejoin:round;stroke-miterlimit:4;stroke-dasharray:none;stroke-dashoffset:0;stroke-opacity:1"
           d="m 103.61568,159.73853 c 1.71834,-0.16177 3.03879,-0.69159 4.1282,-1.43512 l -0.59649,-0.80911 c -0.0983,-0.13332 -0.12993,-0.28673 -0.12993,-0.42818 v -0.73487 c 0,-0.51889 0.3099,-0.77891 0.48841,-1.03571 0.29918,-0.43039 0.53388,-0.91103 0.65142,-1.4245 0.1084,-0.47354 0.0425,-1.10957 -0.0325,-1.39969 -0.0855,-0.33067 -0.27818,-0.40773 3.5e-4,-0.46301 0.16554,-0.0328 0.29381,-0.0248 0.40981,-0.10498 0.0585,-0.0405 0.1086,-0.10501 0.12264,-0.17479 0.0386,-0.19206 -0.0307,-0.41449 -0.12527,-0.57423 -0.12868,-0.21736 -0.22212,-0.45581 -0.25691,-0.7028 -0.0409,-0.2902 -0.004,-0.5915 0.062,-0.87702 0.0515,-0.22241 0.17494,-0.418 0.2569,-0.63488 0.18468,-0.48872 0.16217,-1.00779 0.0502,-1.51191 -0.15677,-0.70579 -0.63104,-1.10202 -1.16936,-1.35835 -0.46613,-0.22195 -1.39706,-0.29316 -2.04344,-0.0768 -0.36357,0.1217 -0.72755,0.35237 -0.89178,0.72642 -0.0591,0.13461 -0.0558,0.27789 -0.0354,0.41639 0.007,0.0509 0.0287,0.0945 0.0827,0.0945 h 0.251 c 0.0456,0 0.0688,0.028 0.0709,0.0738 l 0.0295,0.63784 c 0.004,0.0864 -0.0148,0.15857 -0.0532,0.22737 -0.0887,0.15913 -0.23629,0.27432 -0.3914,0.38376 0.10046,0.17305 0.25951,0.26215 0.4298,0.30134 0.0247,0.006 0.0392,0.0163 0.0369,0.0641 -0.0134,0.28033 0.009,0.55653 0.13734,0.80411 0.0373,0.0717 0.10084,0.1427 0.19488,0.13284 0.33237,-0.0349 0.48804,-0.0214 0.64669,-0.006 0.22339,0.0217 0.33806,0.12743 0.35429,0.3281 0.0175,0.21694 -0.011,0.38455 -0.048,0.54707 -0.0615,0.26978 -0.2222,0.39381 -0.4009,0.49696 -0.48585,0.28045 -1.04285,0.43033 -1.61827,0.53871 -0.81387,0.15329 -1.59323,0.0471 -2.36366,-0.12946 -0.69486,-0.1592 -1.1549,-0.35414 -1.7122,-0.58465 -0.462139,-0.19115 -0.936672,-0.41065 -1.347469,-0.65979 -0.239784,-0.14543 -0.629557,-0.0757 -0.943033,-0.12285 -0.480986,-0.0724 -0.464728,-0.0919 -0.504064,0.17573 -0.01419,0.0965 -0.217649,-0.0207 -0.163292,0.24299 0.03008,0.1461 0.04027,0.29596 0.05699,0.43704 0.01331,0.11238 0.07552,0.11812 0.141741,0.11812 l 1.336788,0.0391 c 0.122285,0.004 0.323325,0.0131 0.392741,0.12111 0.556818,0.86633 1.259958,1.5125 2.117258,1.93653 0.67322,0.33297 1.493,0.37426 2.21766,0.3985 0.063,0.002 0.0957,0.022 0.0703,0.0744 -0.2145,0.44343 -0.20623,0.83757 0.0537,1.11208 0.24367,0.25733 0.42846,0.38207 0.51708,0.64223 0.1477,0.43361 0.10401,0.94936 -0.0292,1.37393 -0.30999,0.98798 -0.46538,1.85345 -0.45242,2.80363 z"
           id="path942"
           inkscape:connector-curvature="0"
           sodipodi:nodetypes="ccsssssssaasaasssassssssscssssssssssassssscssasssasc" />
      </g>
    </g>
  </g>
</svg>
